<svg width="32" height="32" viewBox="0 0 32 32" fill="none" xmlns="http://www.w3.org/2000/svg">
<path d="M12 5H11C10.4477 5 10 5.44772 10 6V9C10 9.55228 10.4477 10 11 10H12C12.5523 10 13 9.55228 13 9V6C13 5.44772 12.5523 5 12 5Z" fill="#02B9FC"/>
<path d="M21 5H20C19.4477 5 19 5.44772 19 6V9C19 9.55228 19.4477 10 20 10H21C21.5523 10 22 9.55228 22 9V6C22 5.44772 21.5523 5 21 5Z" fill="#02B9FC"/>
<path d="M6 25C6 26.1046 6.89543 27 8 27H24C25.1046 27 26 26.1046 26 25V13H6V25Z" fill="url(#paint0_linear_5_98)"/>
<path d="M6 13H26V9C26 7.89543 25.1046 7 24 7H8C6.89543 7 6 7.89543 6 9V13Z" fill="#02B9FC"/>
<path d="M12.7071 17.4747L15.6162 20.3838L14.9091 21.0909L14.202 20.3838L19.2929 15.2929L20.7071 16.7071L15.6162 21.798C15.5698 21.8444 15.5193 21.8859 15.4647 21.9224C15.4101 21.9589 15.3524 21.9897 15.2918 22.0148C15.2311 22.0399 15.1686 22.0589 15.1042 22.0717C15.0398 22.0845 14.9748 22.0909 14.9091 22.0909C14.8434 22.0909 14.7784 22.0845 14.714 22.0717C14.6496 22.0589 14.5871 22.0399 14.5264 22.0148C14.4657 21.9897 14.4081 21.9589 14.3535 21.9224C14.2989 21.8859 14.2484 21.8444 14.202 21.798L11.2929 18.8889L12.7071 17.4747ZM13 18.1818C13 18.2475 12.9936 18.3125 12.9808 18.3769C12.968 18.4413 12.949 18.5038 12.9239 18.5645C12.8988 18.6252 12.8679 18.6828 12.8315 18.7374C12.795 18.792 12.7535 18.8425 12.7071 18.8889C12.6607 18.9354 12.6102 18.9768 12.5556 19.0133C12.501 19.0498 12.4433 19.0806 12.3827 19.1057C12.322 19.1308 12.2595 19.1498 12.1951 19.1626C12.1307 19.1754 12.0657 19.1818 12 19.1818C11.9343 19.1818 11.8693 19.1754 11.8049 19.1626C11.7405 19.1498 11.678 19.1308 11.6173 19.1057C11.5567 19.0806 11.499 19.0498 11.4444 19.0133C11.3898 18.9768 11.3393 18.9354 11.2929 18.8889C11.2465 18.8425 11.205 18.792 11.1685 18.7374C11.1321 18.6828 11.1012 18.6252 11.0761 18.5645C11.051 18.5038 11.032 18.4413 11.0192 18.3769C11.0064 18.3125 11 18.2475 11 18.1818C11 18.1162 11.0064 18.0511 11.0192 17.9867C11.032 17.9223 11.051 17.8598 11.0761 17.7991C11.1012 17.7385 11.1321 17.6808 11.1685 17.6262C11.205 17.5717 11.2465 17.5211 11.2929 17.4747C11.3393 17.4283 11.3898 17.3868 11.4444 17.3503C11.499 17.3139 11.5567 17.2831 11.6173 17.2579C11.678 17.2328 11.7405 17.2138 11.8049 17.201C11.8693 17.1882 11.9343 17.1818 12 17.1818C12.0657 17.1818 12.1307 17.1882 12.1951 17.201C12.2595 17.2138 12.322 17.2328 12.3827 17.2579C12.4433 17.2831 12.501 17.3139 12.5556 17.3503C12.6102 17.3868 12.6607 17.4283 12.7071 17.4747C12.7535 17.5211 12.795 17.5717 12.8315 17.6262C12.8679 17.6808 12.8988 17.7385 12.9239 17.7991C12.949 17.8598 12.968 17.9223 12.9808 17.9867C12.9936 18.0511 13 18.1162 13 18.1818ZM21 16C21 16.0657 20.9936 16.1307 20.9808 16.1951C20.968 16.2595 20.949 16.322 20.9239 16.3827C20.8988 16.4433 20.868 16.501 20.8315 16.5556C20.795 16.6102 20.7535 16.6607 20.7071 16.7071C20.6607 16.7535 20.6102 16.795 20.5556 16.8315C20.501 16.8679 20.4433 16.8988 20.3827 16.9239C20.322 16.949 20.2595 16.968 20.1951 16.9808C20.1307 16.9936 20.0657 17 20 17C19.9343 17 19.8693 16.9936 19.8049 16.9808C19.7405 16.968 19.678 16.949 19.6173 16.9239C19.5567 16.8988 19.499 16.8679 19.4444 16.8315C19.3898 16.795 19.3393 16.7535 19.2929 16.7071C19.2465 16.6607 19.205 16.6102 19.1685 16.5556C19.132 16.501 19.1012 16.4433 19.0761 16.3827C19.051 16.322 19.032 16.2595 19.0192 16.1951C19.0064 16.1307 19 16.0657 19 16C19 15.9343 19.0064 15.8693 19.0192 15.8049C19.032 15.7405 19.051 15.678 19.0761 15.6173C19.1012 15.5567 19.132 15.499 19.1685 15.4444C19.205 15.3898 19.2465 15.3393 19.2929 15.2929C19.3393 15.2465 19.3898 15.205 19.4444 15.1685C19.499 15.1321 19.5567 15.1012 19.6173 15.0761C19.678 15.051 19.7405 15.032 19.8049 15.0192C19.8693 15.0064 19.9343 15 20 15C20.0657 15 20.1307 15.0064 20.1951 15.0192C20.2595 15.032 20.322 15.051 20.3827 15.0761C20.4433 15.1012 20.501 15.1321 20.5556 15.1685C20.6102 15.205 20.6607 15.2465 20.7071 15.2929C20.7535 15.3393 20.795 15.3898 20.8315 15.4444C20.868 15.499 20.8988 15.5567 20.9239 15.6173C20.949 15.678 20.968 15.7405 20.9808 15.8049C20.9936 15.8693 21 15.9343 21 16Z" fill="white"/>
<defs>
<linearGradient id="paint0_linear_5_98" x1="16" y1="13" x2="16" y2="27" gradientUnits="userSpaceOnUse">
<stop stop-color="#05D2FE"/>
<stop offset="1" stop-color="#02B9FC"/>
</linearGradient>
</defs>
</svg>
