<svg xmlns="http://www.w3.org/2000/svg" viewBox="0 0 32 32">
  <rect width="32" height="32" rx="8" fill="#3163F3"/>
  <path transform="translate(8.5, 7.5) scale(0.85)" d="M14.0699 13.6522C13.3543 13.6522 13.0665 13.0932 12.9632 12.5561C12.8009 11.7141 12.7198 9.77598 12.7198 7.83789C12.7198 6.45147 12.7198 3.85283 12.1443 2.32124C10.7794 -1.3154 1.21021 -0.516935 0.922467 3.96897C0.937223 5.64575 3.45309 6.01594 4.27204 4.68033C4.76637 3.9472 4.86966 2.88016 5.62958 2.48093C6.75841 1.8349 8.00527 2.9092 8.09381 4.07786C8.38893 5.85625 6.68463 6.57487 5.20904 7.07572C3.72608 7.62739 2.10293 8.30245 1.15856 9.57273C-2.85503 14.9878 4.50076 19.9019 8.43319 14.9152C8.50697 14.8208 8.64715 14.8498 8.67667 14.966C9.04556 16.3887 9.91616 16.9984 11.377 16.9984C12.7345 16.9984 14.1732 16.0548 14.5864 14.2982C14.6602 13.9715 14.4019 13.6594 14.0552 13.6594L14.0699 13.6522ZM8.30777 11.3366C8.30777 13.3182 6.28622 14.3345 5.10575 13.2529C3.26865 11.489 5.50416 8.32423 8.07168 8.1355C8.1971 8.12824 8.30777 8.22986 8.30777 8.36052V11.3366Z" fill="white"/>
</svg>
