<svg width="32" height="32" viewBox="0 0 32 32" fill="none" xmlns="http://www.w3.org/2000/svg">
<g clip-path="url(#clip0_27_1269)">
<path d="M18.3828 19.1993C18.1749 19.1993 17.967 19.1199 17.8083 18.9612L13.0349 14.1878C12.7175 13.8705 12.7175 13.3561 13.0349 13.0388C13.3522 12.7214 13.8666 12.7214 14.1839 13.0388L18.9573 17.8122C19.2747 18.1295 19.2747 18.644 18.9573 18.9612C18.7986 19.1199 18.5907 19.1993 18.3828 19.1993Z" fill="#1765FC"/>
<path d="M10.3088 22.5C10.0972 22.5 9.88943 22.4174 9.73409 22.262C9.5043 22.0322 9.43351 21.6875 9.55422 21.3857L12.8042 13.2607C12.8868 13.0543 13.0504 12.8907 13.2568 12.8081L21.3818 9.55813C21.6837 9.43742 22.0283 9.50821 22.2581 9.73799C22.4879 9.96783 22.5587 10.3125 22.438 10.6143L19.188 18.7393C19.1054 18.9457 18.9418 19.1093 18.7354 19.1919L10.6104 22.4419C10.5126 22.481 10.4102 22.5 10.3088 22.5ZM14.1837 14.1876L11.7671 20.229L17.8086 17.8125L20.2251 11.771L14.1837 14.1876Z" fill="#1765FC"/>
<path d="M15.9961 29C12.5237 29 9.2591 27.6478 6.80367 25.1924C4.34825 22.737 2.99609 19.4724 2.99609 16C2.99609 12.5276 4.3483 9.263 6.80367 6.80758C9.25905 4.35215 12.5237 3 15.9961 3C19.4685 3 22.7331 4.3522 25.1885 6.80758C27.6439 9.26295 28.9961 12.5276 28.9961 16C28.9961 19.4724 27.6439 22.737 25.1885 25.1924C22.7331 27.6478 19.4685 29 15.9961 29ZM15.9961 4.625C9.7239 4.625 4.62109 9.7278 4.62109 16C4.62109 22.2722 9.7239 27.375 15.9961 27.375C22.2683 27.375 27.3711 22.2722 27.3711 16C27.3711 9.7278 22.2683 4.625 15.9961 4.625Z" fill="#1765FC"/>
</g>
<defs>
<clipPath id="clip0_27_1269">
<rect width="26" height="26" fill="white" transform="translate(2.99609 3)"/>
</clipPath>
</defs>
</svg>
